<svg t="1622616447284" class="icon" viewBox="0 0 1024 1024" version="1.1" xmlns="http://www.w3.org/2000/svg" p-id="4280" width="128" height="128"><path d="M512.498 437.573c-14.062 0-25.474 11.413-25.474 25.474v305.7c0.197 13.927 11.543 25.113 25.472 25.113 13.929 0 25.276-11.187 25.473-25.113v-305.7c0-14.067-11.403-25.471-25.471-25.474z m0-433.073C231.102 4.5 3 232.602 3 513.997 3 795.394 231.102 1023.5 512.498 1023.5c281.39 0 509.497-228.106 509.497-509.503C1021.995 232.602 793.888 4.5 512.498 4.5z m0 968.046c-253.271 0-458.548-205.276-458.548-458.549 0-253.267 205.277-458.548 458.548-458.548 253.275 0 458.548 205.276 458.548 458.548 0 253.273-205.273 458.549-458.548 458.549z m0-738.773c-28.124 0-50.949 22.825-50.949 50.95 0 28.129 22.825 50.95 50.949 50.95s50.951-22.821 50.951-50.95c0-28.125-22.827-50.95-50.951-50.95z" p-id="4281" fill="#2c2c2c"></path></svg>