<svg t="1622200178832" class="icon" viewBox="0 0 1024 1024" version="1.1" xmlns="http://www.w3.org/2000/svg" p-id="2421" width="128" height="128"><path d="M151.519902 579.675831c118.203458 118.169324 310.612609 118.16932399 428.884333 0a300.850498 300.850498 0 0 0 88.780593-214.2203c0-80.895811-31.539126-157.012967-88.780593-214.2203-118.271724-118.135191-310.680875-118.135191-428.884333 0a300.713965 300.713965 0 0 0-88.814726 214.2203c0 80.895811 31.539126 157.012967 88.814726 214.2203m571.356534-133.051423a363.177819 363.177819 0 0 1-98.201371 177.424653c-142.677 142.540467-374.783126 142.540467-517.460126-1e-8A363.211953 363.211953 0 0 1 0.00238901 365.455531c0-97.689372 38.058578-189.507824 107.17841699-258.59353 142.677-142.540467 374.851392-142.540467 517.494259 0a362.938886 362.938886 0 0 1 107.00775 246.578625l251.937546 338.43121c26.077806 26.555671 40.379639 62.805187 40.379639 102.399761a168.140408 168.140408 0 0 1-49.83455 119.602921l-50.858548 50.073483c-72.499031 70.997168-145.680727 79.018482-217.667759 23.995678l-1.877329-1.535997-200.498732-179.19958199a31.334327 31.334327 0 1 1 41.779102-46.69429101l199.577135 178.312118c46.011626 34.713519 85.128335 28.94499899 134.758085-19.592488l50.85854801-50.107616c19.490088-19.080489 31.061261-47.00149 31.061261-74.854226 0-23.551945-8.294381-44.64629601-23.34714601-59.391861l-3.242659-3.686392-211.830972-284.568936z" fill="#bfbfbf" p-id="2422"></path></svg>