<svg t="1622800554814" class="icon" viewBox="0 0 1365 1024" version="1.1" xmlns="http://www.w3.org/2000/svg" p-id="10597" width="128" height="128"><path d="M50.176 485.444267V333.346133a32.768 32.768 0 0 1 49.425067-28.125866l130.798933 75.5712 130.8672 75.5712a32.699733 32.699733 0 0 1 0 56.183466L230.4 588.1856 99.669333 663.7568a32.9728 32.9728 0 0 1-49.425066-28.125867v-150.186666z m1224.772267-357.717334H78.301867c-27.101867 0-48.469333-27.0336-48.469334-61.44s21.367467-61.44 48.469334-61.44H1275.904c27.170133 0 48.469333 27.0336 48.469333 61.44s-22.254933 61.44-49.425066 61.44z m0 432.128H538.624c-27.101867 0-48.469333-27.0336-48.469333-61.44s21.367467-61.44 48.469333-61.44h736.392533c27.170133 0 48.469333 27.0336 48.469334 61.44s-21.2992 61.44-48.469334 61.44z m0 432.128H78.301867c-27.101867 0-48.469333-26.965333-48.469334-61.44 0-34.338133 21.367467-61.44 48.469334-61.44H1275.904c27.170133 0 48.469333 27.101867 48.469333 61.44 0 34.474667-22.254933 61.44-49.425066 61.44z" p-id="10598" fill="#dbdbdb"></path></svg>