<svg t="1622800895092" class="icon" viewBox="0 0 1024 1024" version="1.1" xmlns="http://www.w3.org/2000/svg" p-id="4058" width="128" height="128"><path d="M731.9 735.5c-45.5 0-85.6 21.8-111.9 55.1L289.2 557.4c1.8-9.2 2.8-18.6 2.8-28.3 0-15.1-2.9-29.4-7.3-43.1L611 221.6c25.5 40.2 70 67 120.8 67 79.1 0 143.5-64.7 143.5-144.3C875.4 64.7 811 0 731.9 0c-79.1 0-143.5 64.7-143.5 144.2 0 11.4 1.7 22.4 4.2 33.1l-0.8-1-328.9 266.5c-26.3-35-67.5-58-114.4-58C69.4 384.8 5 449.5 5 529c0 79.5 64.4 144.2 143.5 144.2 52.3 0 97.7-28.5 122.8-70.7L597 832.3c-5.2 14.9-8.7 30.7-8.7 47.4 0 79.5 64.4 144.3 143.5 144.3s143.5-64.7 143.5-144.3S811 735.5 731.9 735.5z m0-685.5c51.7 0 93.8 42.2 93.8 94.2s-42.1 94.3-93.8 94.3c-51.7 0-93.8-42.3-93.8-94.3S680.2 50 731.9 50zM148.5 623.3c-51.7 0-93.8-42.2-93.8-94.2s42-94.3 93.8-94.3 93.8 42.3 93.8 94.3c0 51.9-42 94.2-93.8 94.2zM731.9 974c-51.7 0-93.8-42.3-93.8-94.3 0-51.9 42.1-94.2 93.8-94.2 51.7 0 93.8 42.3 93.8 94.2 0 52-42.1 94.3-93.8 94.3z" p-id="4059" fill="#dbdbdb"></path></svg>