<svg t="1622616074897" class="icon" viewBox="0 0 1024 1024" version="1.1" xmlns="http://www.w3.org/2000/svg" p-id="1477" width="128" height="128"><path d="M960 245.248V189.44h-896v61.952L498.688 547.84c1.024 0.512 1.536 0.512 2.56 0l455.168-300.032c1.024-1.536 2.56-2.048 3.584-2.56z m0 76.288l-422.912 279.04c-22.528 15.36-51.712 14.848-74.24 0L64 328.704V829.44h896V321.536z m-896-196.096h896c35.328 0 64 28.672 64 64v640c0 35.328-28.672 64-64 64h-896C28.672 893.44 0 864.768 0 829.44V189.44c0-35.328 28.672-64 64-64z" p-id="1478"></path></svg>