<svg t="1622272164772" class="icon" viewBox="0 0 1024 1024" version="1.1" xmlns="http://www.w3.org/2000/svg" p-id="1017" width="128" height="128"><path d="M763.714 487.571c18.936 0 34.286 15.35 34.286 34.286 0 143.429-105.95 262.112-243.856 282.052L554.143 896h-82.286l-0.001-92.09C333.951 783.968 228 665.285 228 521.856c0-18.935 15.35-34.286 34.286-34.286 18.746 0 33.978 15.045 34.28 33.72l0.005 0.566c0 119.53 96.899 216.429 216.429 216.429 118.335 0 214.488-94.97 216.4-212.85l0.029-3.579c0-18.935 15.35-34.286 34.285-34.286zM513 128c75.742 0 137.143 61.4 137.143 137.143v274.286c0 75.741-61.401 137.142-137.143 137.142-75.742 0-137.143-61.4-137.143-137.142V265.143C375.857 189.4 437.258 128 513 128z" fill="#2c2c2c" p-id="1018"></path></svg>