<svg t="1622616297378" class="icon" viewBox="0 0 1024 1024" version="1.1" xmlns="http://www.w3.org/2000/svg" p-id="2953" width="128" height="128"><path d="M197 928.8c-35.6-0.1-64.5-29.2-64.5-64.8V163.8c0-35.7 28.9-64.8 64.6-64.9h403.6c27.7 0 61.6 15 80.6 35.6l179.3 194.9c18.4 20 31.7 54.2 31.7 81.3V864c0.1 35.7-28.9 64.8-64.5 64.9H197z m-5-59.6l641.1 0.1-0.3-459.2-0.2-1.4-0.3-4.9-5-0.2H652.6c-35.8 0-64.9-29.1-64.9-64.9V158.4H177.6l14.4 8.4v702.4z m455.3-525.3l146 0.1-146-158.7v158.6z" p-id="2954" fill="#2c2c2c"></path><path d="M372.4 753.7c-16.4 0-29.8-13.3-29.8-29.7s13.4-29.8 29.8-29.8h280.1c16.4 0 29.8 13.4 29.8 29.8s-13.3 29.7-29.8 29.7H372.4z m0-175.1c-16.4 0-29.8-13.4-29.8-29.8s13.4-29.7 29.8-29.7h280.1c16.4 0 29.8 13.3 29.8 29.7s-13.3 29.8-29.8 29.8H372.4z" p-id="2955" fill="#2c2c2c"></path></svg>