<svg t="1622200254590" class="icon" viewBox="0 0 1024 1024" version="1.1" xmlns="http://www.w3.org/2000/svg" p-id="2709" width="128" height="128"><path d="M618.730667 64.213333C772.821333 69.845333 896 196.544 896 352c0 108.757333-60.288 203.434667-149.248 252.437333C872.170667 658.24 960 782.869333 960 928a32 32 0 0 1-64 0c0-108.8-60.309333-203.477333-149.333333-252.48a416.768 416.768 0 0 0-59.946667-63.424l-9.664-8.021333-8.64-6.762667 11.989333-12.906667c8.405333-9.557333 16.298667-19.562667 23.594667-29.952 75.669333-35.946667 128-113.088 128-202.453333s-52.330667-166.506667-128-202.453333a353.962667 353.962667 0 0 0-85.269333-85.333334zM416 64C575.061333 64 704 192.938667 704 352c0 108.757333-60.288 203.434667-149.248 252.437333C680.170667 658.24 768 782.869333 768 928a32 32 0 0 1-64 0C704 768.938667 575.061333 640 416 640S128 768.938667 128 928a32 32 0 0 1-64 0c0-145.130667 87.829333-269.76 213.248-323.605333A287.850667 287.850667 0 0 1 128 352C128 192.938667 256.938667 64 416 64z m0 64C292.288 128 192 228.288 192 352S292.288 576 416 576 640 475.712 640 352 539.712 128 416 128z" fill="#ffffff" p-id="2710"></path></svg>