<svg t="1622800339881" class="icon" viewBox="0 0 1024 1024" version="1.1" xmlns="http://www.w3.org/2000/svg" p-id="20606" width="128" height="128"><path d="M911.36 0a15.36 15.36 0 0 0-15.36 15.36v448.74752a117.2992 117.2992 0 0 0-42.62912-43.264L224.16384 49.85856a101.20192 101.20192 0 0 0-51.4048-14.01856C116.9408 35.84 71.68 81.02912 71.68 136.76544v770.92864c0 18.05312 4.85376 35.77856 14.03904 51.32288 28.39552 47.99488 90.37824 63.92832 138.4448 35.584l629.20704-370.97472A117.84192 117.84192 0 0 0 896 580.3008V1008.64A15.36 15.36 0 0 0 911.36 1024h20.48a15.36 15.36 0 0 0 15.36-15.36v-993.28A15.36 15.36 0 0 0 931.84 0h-20.48zM172.76928 86.30272c9.03168 0 17.92 2.41664 25.7024 7.0144L827.66848 464.2816l3.03104 1.90464a67.2256 67.2256 0 0 1 20.72576 90.24512l-2.28352 3.59424a67.34848 67.34848 0 0 1-21.47328 20.13184L198.4512 951.15264l-2.69312 1.4848a50.5856 50.5856 0 0 1-66.51904-19.28192 50.40128 50.40128 0 0 1-7.02464-25.66144V136.76544l0.08192-2.9696a50.51392 50.51392 0 0 1 50.46272-47.49312z" p-id="20607" fill="#e6e6e6"></path></svg>