<svg t="1622800459013" class="icon" viewBox="0 0 1024 1024" version="1.1" xmlns="http://www.w3.org/2000/svg" p-id="2091" width="128" height="128"><path d="M873.277076 875.353462c-99.097692 99.097692-219.499681 148.646538-361.262854 148.646538-141.763173 0-262.53493-49.918613-362.315269-149.698953C49.918614 774.520708 0.000001 653.748951 0.000001 512.014222c0-141.763173 49.89017-262.53493 149.670509-362.315269 99.780339-99.780339 220.552096-149.698953 362.315269-149.698953s262.53493 49.918613 362.315269 149.698953c99.780339 99.780339 149.670509 220.552096 149.670509 362.315269 0 141.73473-50.231494 262.84781-150.722925 363.33924zM66.07461 512.014222c0 123.843671 43.689453 229.142079 131.096802 315.838338 87.40735 86.724702 192.335991 130.072831 314.84281 130.072831 123.843671 0 229.142079-43.689453 315.838338-131.096803 86.724702-87.40735 130.072831-192.335991 130.072831-314.814366 0-123.872115-43.689453-229.170523-131.096802-315.866782-87.378906-86.724702-192.335991-130.072831-314.814367-130.072831-123.872115 0-229.170523 43.689453-315.866781 131.096803-86.724702 87.40735-130.072831 192.335991-130.072831 314.84281zM751.481348 474.838366c16.49732 9.642399 24.745979 24.091775 24.74598 43.348129 0 19.284798-8.24866 33.734174-24.74598 43.348129l-363.33924 208.52043c-12.401433 5.518069-24.091775 7.224688-35.09947 5.176745a47.017361 47.017361 0 0 1-27.874781-16.525763c-7.566012-8.959751-11.377462-19.626121-11.377462-31.999111v-429.41385c0-19.256354 8.277103-33.70573 24.802867-43.348129 16.49732-9.642399 33.023083-9.642399 49.548846 0z m-371.616344 202.319713c0 4.12433 2.076387 7.566012 6.200717 10.325046 4.12433 2.759034 8.24866 2.759034 12.401433 0l278.690925-158.971584a19.398572 19.398572 0 0 0 5.148302-11.349018c0.711091-4.835421-1.023972-7.907336-5.148302-9.301075l-278.690925-169.268187a11.633455 11.633455 0 0 0-12.401433-1.052415c-4.12433 2.076387-6.200717 5.859393-6.200717 11.377462z" p-id="2092" fill="#e6e6e6"></path></svg>