<svg t="1622800403917" class="icon" viewBox="0 0 1024 1024" version="1.1" xmlns="http://www.w3.org/2000/svg" p-id="1714" width="128" height="128"><path d="M112.64 1024a15.36 15.36 0 0 0 15.36-15.36l0-448.74752a117.2992 117.2992 0 0 0 42.62912 43.264L799.83616 974.14144a101.20192 101.20192 0 0 0 51.4048 14.01856C907.0592 988.16 952.32 942.97088 952.32 887.23456l0-770.92864c0-18.05311999-4.85376-35.77856-14.03904-51.32288-28.39552-47.99488-90.37824-63.92832-138.4448-35.584l-629.20704 370.97472A117.84192 117.84192 0 0 0 127.99999999 443.6992L128 15.36A15.36 15.36 0 0 0 112.64 0l-20.48 0a15.36 15.36 0 0 0-15.36 15.36l0 993.28A15.36 15.36 0 0 0 92.16 1024l20.48 0zM851.23072 937.69728c-9.03168 0-17.92-2.41664-25.7024-7.0144L196.33152 559.7184l-3.03104-1.90464a67.2256 67.2256 0 0 1-20.72576-90.24512l2.28352-3.59424a67.34848 67.34848 0 0 1 21.47328-20.13184L825.5488 72.84736l2.69312-1.4848a50.5856 50.5856 0 0 1 66.51904 19.28192 50.40128 50.40128 0 0 1 7.02464 25.66144L901.7856 887.23456l-0.08192 2.9696a50.51392 50.51392 0 0 1-50.46272 47.49312z" p-id="1715" fill="#e6e6e6"></path></svg>