<svg t="1622800434801" class="icon" viewBox="0 0 1024 1024" version="1.1" xmlns="http://www.w3.org/2000/svg" p-id="1902" width="128" height="128"><path d="M403.576471 752.941176a30.117647 30.117647 0 0 1-30.117647-30.117647V301.176471a30.117647 30.117647 0 0 1 60.235294 0v421.647058a30.117647 30.117647 0 0 1-30.117647 30.117647zM620.423529 752.941176a30.117647 30.117647 0 0 1-30.117647-30.117647V301.176471a30.117647 30.117647 0 0 1 60.235294 0v421.647058a30.117647 30.117647 0 0 1-30.117647 30.117647z" p-id="1903" fill="#e6e6e6"></path><path d="M512 1024A512 512 0 1 1 1024 512 512.602353 512.602353 0 0 1 512 1024z m0-963.764706A451.764706 451.764706 0 1 0 963.764706 512 451.764706 451.764706 0 0 0 512 60.235294z" p-id="1904" fill="#e6e6e6"></path></svg>