<svg t="1622800293994" class="icon" viewBox="0 0 1024 1024" version="1.1" xmlns="http://www.w3.org/2000/svg" p-id="20142" width="128" height="128"><path d="M81.067 573.883c0 161.928 117.353 279.45 279.074 279.45h540.126c18.88 0 34.133-15.258 34.133-34.133s-15.259-34.133-34.133-34.133H360.14c-124.109 0-210.808-86.836-210.808-211.184v-6.62c0-128.783 90.625-225.93 210.808-225.93h455.885l-110.183 110.52c-13.277 13.35-13.347 34.953 0.065 48.263a34.133 34.133 0 0 0 48.268-0.066L923.68 330.066c0.032-0.032 0.032-0.065 0.064-0.103 0.034-0.032 0.066-0.032 0.105-0.07a34.144 34.144 0 0 0-0.274-48.268l-170.94-169.062a34.133 34.133 0 0 0-47.993 48.536l113.186 111.957H360.141c-159.094 0-279.074 126.5-279.074 294.196v6.63z" p-id="20143" fill="#e6e6e6"></path></svg>