<svg t="1622200224951" class="icon" viewBox="0 0 1024 1024" version="1.1" xmlns="http://www.w3.org/2000/svg" p-id="2563" width="128" height="128"><path d="M880 184h-168v-64A8 8 0 0 0 704 112h-56a8 8 0 0 0-8 8v64H384v-64a8 8 0 0 0-8-8H320a8 8 0 0 0-8 8v64H144a32 32 0 0 0-32 32V880a32 32 0 0 0 32 32h736a32 32 0 0 0 32-32V216a32 32 0 0 0-32-32z m-40 656H184V459.968h656v380.032z m-656-448V256h128v48c0 4.416 3.584 8 8 8h56A8 8 0 0 0 384 304V256h256v48c0 4.416 3.584 8 8 8H704a8 8 0 0 0 8-8V256h128v136H184z" fill="#ff5a4c" p-id="2564"></path></svg>