<svg t="1622616353030" class="icon" viewBox="0 0 1024 1024" version="1.1" xmlns="http://www.w3.org/2000/svg" p-id="3330" width="128" height="128"><path d="M512 954.1c-4.1 0-8.3-1.1-12-3.2l-363.7-210c-7.4-4.3-12-12.2-12-20.8v-420c0-8.6 4.6-16.5 12-20.8L500 69.3c7.4-4.3 16.6-4.3 24 0l363.7 210c7.4 4.3 12 12.2 12 20.8v420c0 8.6-4.6 16.5-12 20.8L524 950.9c-3.7 2.1-7.9 3.2-12 3.2zM172.3 706.3L512 902.4l339.7-196.1V314L512 117.8 172.3 314v392.3z m703.4 13.8z" p-id="3331" fill="#2c2c2c"></path><path d="M512 670.5c-88.4 0-160.4-72-160.4-160.4s72-160.4 160.4-160.4 160.4 72 160.4 160.4-72 160.4-160.4 160.4z m0-272.8c-62 0-112.4 50.4-112.4 112.4 0 62 50.4 112.4 112.4 112.4 62 0 112.4-50.4 112.4-112.4 0-62-50.4-112.4-112.4-112.4z" p-id="3332" fill="#2c2c2c"></path></svg>