<svg t="1622616159112" class="icon" viewBox="0 0 1024 1024" version="1.1" xmlns="http://www.w3.org/2000/svg" p-id="1627" width="128" height="128"><path d="M511.2 929.6c230.4 0 417.6-187.2 417.6-417.6 0-16-12-28-28-28s-28 12-28 28c0 199.2-161.6 360.8-360.8 360.8S151.2 711.2 151.2 512 312.8 151.2 512 151.2c16 0 28-12 28-28s-12-28-28-28C282.4 95.2 95.2 282.4 95.2 512c0 230.4 186.4 417.6 416 417.6z" fill="#2c2c2c" p-id="1628"></path><path d="M695.2 286.4c-160.8 0-229.6 82.4-229.6 276.8v4c1.6 14.4 14.4 26.4 29.6 25.6 14.4-1.6 26.4-14.4 25.6-29.6 0-164 45.6-221.6 175.2-221.6h64.8l-24 24c-10.4 11.2-10.4 28.8 0 39.2 11.2 10.4 28.8 10.4 39.2 0l62.4-62.4c15.2-16 15.2-41.6 0-56.8L776 223.2c-9.6-8.8-25.6-8.8-36 0-11.2 10.4-12.8 27.2-2.4 39.2l21.6 24h-64z" fill="#2c2c2c" p-id="1629"></path></svg>