<svg t="1622616413503" class="icon" viewBox="0 0 1024 1024" version="1.1" xmlns="http://www.w3.org/2000/svg" p-id="3899" width="128" height="128"><path d="M512.27 1.445C229.764 1.445 0.724 229.583 0.724 511.187s229.04 509.742 511.548 509.742S1024 792.792 1024 511.187 794.96 1.445 512.27 1.445z m0 972.34c-256.496 0-464.403-207.004-464.403-462.598S255.774 48.771 512.271 48.771s464.765 207.003 464.765 462.416c0 255.594-208.088 462.597-464.765 462.597z" fill="#2c2c2c" p-id="3900"></path><path d="M664.905 661.653h-40.643c25.289 61.234 84.175 99.167 175.574 114.34v-22.94c-74.781-18.605-119.758-49.132-134.931-91.4z m-440.019 91.4v22.94c91.761-15.354 150.105-53.467 175.393-114.34h-40.822c-14.993 42.268-59.97 72.795-134.57 91.4z m-5.238-95.554h277.27v59.97c1.625 27.275-12.645 39.919-43.352 38.113h-40.642v27.997h53.647c47.506 0 71.169-20.41 71.169-61.234v-65.027h264.625v-47.325H219.648v47.506z m63.943-138.364v42.81h457.72v-42.81h-457.72z m-61.234-280.34v44.435h184.606v47.506H263.18V471.81h427.374c49.132 1.807 72.072-27.997 68.82-68.82v-72.253H616.677V283.23h188.218v-44.435H222.357z m184.786 197.25h-103.14V366.32h103.14v69.723z m171.24 0H444.894V366.32h133.487v69.723z m0-105.128H444.894V283.41h133.487v47.506zM721.08 366.5v36.669c0 22.037-11.019 32.874-33.236 32.874h-71.169v-69.723h104.405v0.18z" fill="#2c2c2c" p-id="3901"></path></svg>