<svg t="1622616207714" class="icon" viewBox="0 0 1024 1024" version="1.1" xmlns="http://www.w3.org/2000/svg" p-id="2192" width="128" height="128"><path d="M512 0a512 512 0 1 1 0 1024A512 512 0 0 1 512 0z m0 73.142857a438.857143 438.857143 0 1 0 0 877.714286A438.857143 438.857143 0 0 0 512 73.142857z m0 182.857143a36.571429 36.571429 0 0 1 36.571429 36.571429v201.728l125.074285 98.742857a36.571429 36.571429 0 1 1-45.348571 57.344l-138.971429-109.714286A36.571429 36.571429 0 0 1 475.428571 512V292.571429a36.571429 36.571429 0 0 1 36.571429-36.571429z" fill="#2c2c2c" p-id="2193"></path></svg>