<svg t="1622616430349" class="icon" viewBox="0 0 1024 1024" version="1.1" xmlns="http://www.w3.org/2000/svg" p-id="4092" width="128" height="128"><path d="M443.90948 703.684705a36.543463 36.543463 0 0 1-25.88762-62.431083l204.189001-204.189001a36.543463 36.543463 0 1 1 51.74324 51.71124l-204.157001 204.221001a36.575463 36.575463 0 0 1-25.88762 10.719842m-109.278395-109.246395a36.479464 36.479464 0 0 1-25.85562-10.719843 36.479464 36.479464 0 0 1 0-51.71124l204.189001-204.189001a36.575463 36.575463 0 1 1 51.775239 51.679241l-204.221 204.221a36.607462 36.607462 0 0 1-25.88762 10.719843m15.551772 290.235737l55.263188 57.023162a23.039662 23.039662 0 0 0 31.775533 0.287996l506.872556-496.536707a22.49567 22.49567 0 0 0 0.415994-31.743534l-55.263189-57.055162a157.437688 157.437688 0 0 1-81.502803 22.527669 157.24569 157.24569 0 0 1-113.374334-47.775298 157.373689 157.373689 0 0 1-45.119338-112.478348 157.27769 157.27769 0 0 1 24.607639-83.03878l-55.295188-56.959164a23.231659 23.231659 0 0 0-31.807533-0.255996L79.978825 575.270591a22.591668 22.591668 0 0 0-0.415994 31.871532l55.19919 56.959163a157.30969 157.30969 0 0 1 81.438804-22.527669c43.039368 0 83.326776 16.959751 113.374334 47.807298a157.117692 157.117692 0 0 1 45.119338 112.414349 157.27769 157.27769 0 0 1-24.51164 82.942781m71.198954 136.829991c-25.919619 0-50.239262-10.23985-68.414995-28.863576L275.207958 912.545637a36.607462 36.607462 0 0 1 0.70399-51.679241c16.31976-15.871767 25.407627-37.183454 25.663623-59.93512a84.382761 84.382761 0 0 0-24.287644-60.479111c-31.871532-32.67152-88.062707-33.34351-120.574229-1.535978a39.51942 39.51942 0 0 1-26.047617 10.431847 36.607462 36.607462 0 0 1-25.759622-11.103837L27.2116 658.181373A94.814607 94.814607 0 0 1 0.012 590.406368a95.038604 95.038604 0 0 1 28.863576-67.423009L535.684132 26.382653c36.79946-35.807474 99.614537-35.007486 135.294013 1.503977L748.801002 108.109452c14.047794 14.495787 13.759798 37.599448-0.735989 51.647242a84.670756 84.670756 0 0 0-25.663623 60.031118c-0.255996 22.815665 8.351877 44.28735 24.255644 60.57511 31.839532 32.543522 88.062707 33.279511 120.670227 1.439979 6.943898-6.8159 16.831753-9.599859 26.047618-10.431847 9.727857 0.159998 19.007721 4.127939 25.727622 11.103837l77.662859 80.158823a94.398614 94.398614 0 0 1 27.199601 67.519008 95.038604 95.038604 0 0 1-28.703579 67.519008L488.324828 994.304436a95.454598 95.454598 0 0 1-66.943017 27.2636" p-id="4093" fill="#2c2c2c"></path></svg>